<svg width="32" height="20" viewBox="0 0 32 20" fill="none" xmlns="http://www.w3.org/2000/svg">
<path d="M31.8495 0.644979H31.3051C30.632 0.644979 29.9979 0.961102 29.5887 1.49915L24.0167 8.839L18.4446 1.49915C18.0367 0.961102 17.402 0.644979 16.7295 0.644979H16.1851L23.2116 9.90026L16.0346 19.3543H16.579C17.2521 19.3543 17.8862 19.0381 18.2948 18.5001L24.0173 10.9622L29.7398 18.5001C30.1484 19.0381 30.7825 19.3543 31.4556 19.3543H32L24.823 9.90026L31.8495 0.644979ZM13.6348 15.6395C11.999 18.1433 8.7788 19.4265 5.7001 18.2949C2.99159 17.2995 1.28092 14.5873 1.28092 11.6828V10.9673H8.96646H16.0115V8.3003C16.0115 4.10361 12.9258 0.4295 8.77752 0.0366056C4.01761 -0.414352 0 3.36105 0 8.06417V11.6596C0 15.1247 2.05908 18.3459 5.29597 19.5194C9.52494 21.0523 13.9729 18.7646 15.4767 14.8382H15.0681C14.4847 14.8382 13.955 15.1485 13.6348 15.6395ZM1.28092 8.06417C1.28092 4.32877 4.29749 1.29013 8.00576 1.29013C11.714 1.29013 14.7306 4.32877 14.7306 8.06417V9.67704H1.28092V8.06417Z" fill="black"/>
</svg>
