<svg width="22" height="36" viewBox="0 0 22 36" fill="none" xmlns="http://www.w3.org/2000/svg">
<g clip-path="url(#clip0_22_910)">
<g clip-path="url(#clip1_22_910)">
<mask id="mask0_22_910" style="mask-type:luminance" maskUnits="userSpaceOnUse" x="0" y="1" width="22" height="34">
<path d="M21.5366 1.31714H0.463379V34.683H21.5366V1.31714Z" fill="white"/>
</mask>
<g mask="url(#mask0_22_910)">
<path d="M11 18.0002C11 16.5253 11.5551 15.1109 12.5431 14.068C13.5311 13.0251 14.871 12.4392 16.2683 12.4392C17.6656 12.4392 19.0055 13.0251 19.9935 14.068C20.9815 15.1109 21.5366 16.5253 21.5366 18.0002C21.5366 19.4751 20.9815 20.8895 19.9935 21.9324C19.0055 22.9753 17.6656 23.5612 16.2683 23.5612C14.871 23.5612 13.5311 22.9753 12.5431 21.9324C11.5551 20.8895 11 19.4751 11 18.0002Z" fill="#1ABCFE"/>
<path d="M0.463379 29.1218C0.463379 27.6469 1.01843 26.2325 2.00643 25.1896C2.99442 24.1467 4.33443 23.5608 5.73167 23.5608H11V29.1218C11 30.5967 10.4449 32.0111 9.45691 33.054C8.46891 34.0968 7.12893 34.6827 5.73167 34.6827C4.33443 34.6827 2.99442 34.0968 2.00643 33.054C1.01843 32.0111 0.463379 30.5967 0.463379 29.1218Z" fill="#0ACF83"/>
<path d="M11 1.31714V12.4391H16.2683C17.6656 12.4391 19.0055 11.8532 19.9935 10.8103C20.9815 9.76742 21.5366 8.353 21.5366 6.87811C21.5366 5.40325 20.9815 3.9888 19.9935 2.94591C19.0055 1.90303 17.6656 1.31714 16.2683 1.31714H11Z" fill="#FF7262"/>
<path d="M0.463379 6.87811C0.463379 8.353 1.01843 9.76742 2.00643 10.8103C2.99442 11.8532 4.33443 12.4391 5.73167 12.4391H11V1.31714H5.73167C4.33443 1.31714 2.99442 1.90303 2.00643 2.94591C1.01843 3.9888 0.463379 5.40325 0.463379 6.87811Z" fill="#F24E1E"/>
<path d="M0.463379 18.0002C0.463379 19.4751 1.01843 20.8895 2.00643 21.9324C2.99442 22.9753 4.33443 23.5612 5.73167 23.5612H11V12.4392H5.73167C4.33443 12.4392 2.99442 13.0251 2.00643 14.068C1.01843 15.1109 0.463379 16.5253 0.463379 18.0002Z" fill="#A259FF"/>
</g>
</g>
</g>
<defs>
<clipPath id="clip0_22_910">
<rect width="21.0732" height="36" fill="white" transform="translate(0.463379)"/>
</clipPath>
<clipPath id="clip1_22_910">
<rect width="21.0732" height="33.3659" fill="white" transform="translate(0.463379 1.31714)"/>
</clipPath>
</defs>
</svg>
