<svg width="32" height="32" viewBox="0 0 32 32" fill="none" xmlns="http://www.w3.org/2000/svg">
<g clip-path="url(#clip0_22_921)">
<mask id="mask0_22_921" style="mask-type:luminance" maskUnits="userSpaceOnUse" x="0" y="0" width="32" height="32">
<path d="M0 0.0393066H31.9607V32H0V0.0393066Z" fill="white"/>
</mask>
<g mask="url(#mask0_22_921)">
<path d="M31.3586 14.5967L17.4038 0.642919C17.2126 0.451636 16.9856 0.299895 16.7358 0.196366C16.486 0.0928375 16.2182 0.0395508 15.9478 0.0395508C15.6774 0.0395508 15.4096 0.0928375 15.1598 0.196366C14.9099 0.299895 14.6829 0.451636 14.4918 0.642919L11.5951 3.54101L15.2702 7.21614C15.7023 7.0694 16.1668 7.04649 16.6112 7.15C17.0556 7.25352 17.4622 7.47932 17.785 7.80188C18.1096 8.12677 18.3361 8.53645 18.4388 8.98407C18.5415 9.43168 18.5161 9.89915 18.3655 10.333L21.9088 13.8753C22.3428 13.7245 22.8105 13.6992 23.2582 13.802C23.7059 13.9049 24.1156 14.1318 24.4403 14.4568C24.6677 14.6842 24.8482 14.9542 24.9712 15.2513C25.0943 15.5484 25.1577 15.8669 25.1577 16.1885C25.1577 16.5101 25.0943 16.8285 24.9712 17.1257C24.8482 17.4228 24.6677 17.6927 24.4403 17.9201C23.9805 18.3795 23.3572 18.6375 22.7073 18.6375C22.0574 18.6375 21.434 18.3795 20.9742 17.9201C20.6327 17.578 20.3999 17.1425 20.3054 16.6684C20.2108 16.1943 20.2586 15.7028 20.4427 15.2558L17.1384 11.9525V20.6471C17.4872 20.8194 17.7899 21.0723 18.0214 21.3848C18.253 21.6974 18.4068 22.0607 18.47 22.4445C18.5333 22.8283 18.5041 23.2217 18.3851 23.592C18.266 23.9624 18.0604 24.299 17.7854 24.5741C17.558 24.8015 17.288 24.9819 16.9909 25.105C16.6938 25.2281 16.3753 25.2914 16.0537 25.2914C15.7321 25.2914 15.4136 25.2281 15.1165 25.105C14.8194 24.9819 14.5494 24.8015 14.322 24.5741C14.0946 24.3467 13.9141 24.0767 13.791 23.7795C13.6679 23.4824 13.6045 23.1639 13.6045 22.8422C13.6045 22.5206 13.6679 22.2021 13.791 21.9049C13.9141 21.6078 14.0946 21.3378 14.322 21.1104C14.5512 20.8808 14.8236 20.6988 15.1234 20.5751V11.8005C14.8248 11.6775 14.5534 11.4967 14.3249 11.2685C14.0963 11.0403 13.9151 10.7691 13.7916 10.4707C13.6681 10.1722 13.6049 9.85235 13.6054 9.52937C13.6059 9.20639 13.6703 8.8867 13.7947 8.58866L10.1711 4.96431L0.601699 14.5313C0.216084 14.9176 -0.000488281 15.4412 -0.000488281 15.9871C-0.000488281 16.533 0.216084 17.0565 0.601699 17.4429L14.5572 31.3984C14.9435 31.7839 15.467 32.0004 16.0128 32.0004C16.5586 32.0004 17.0821 31.7839 17.4685 31.3984L31.3586 17.5083C31.7442 17.1219 31.9608 16.5984 31.9608 16.0525C31.9608 15.5066 31.7442 14.983 31.3586 14.5967Z" fill="#F03C2E"/>
</g>
</g>
<defs>
<clipPath id="clip0_22_921">
<rect width="32" height="32" fill="white"/>
</clipPath>
</defs>
</svg>
