<svg width="32" height="32" viewBox="0 0 32 32" fill="none" xmlns="http://www.w3.org/2000/svg">
<path d="M10.7032 24.8375C10.7032 24.9625 10.5548 25.0625 10.3677 25.0625C10.1548 25.0812 10.0065 24.9812 10.0065 24.8375C10.0065 24.7125 10.1548 24.6125 10.3419 24.6125C10.5355 24.5938 10.7032 24.6938 10.7032 24.8375ZM8.69677 24.5562C8.65161 24.6812 8.78065 24.825 8.97419 24.8625C9.14194 24.925 9.33548 24.8625 9.37419 24.7375C9.4129 24.6125 9.29032 24.4688 9.09677 24.4125C8.92903 24.3687 8.74194 24.4312 8.69677 24.5562ZM11.5484 24.45C11.3613 24.4938 11.2323 24.6125 11.2516 24.7563C11.271 24.8813 11.4387 24.9625 11.6323 24.9188C11.8194 24.875 11.9484 24.7563 11.929 24.6313C11.9097 24.5125 11.7355 24.4313 11.5484 24.45ZM15.7935 0.5C6.84516 0.5 0 7.08125 0 15.75C0 22.6812 4.50323 28.6125 10.9355 30.7C11.7613 30.8438 12.0516 30.35 12.0516 29.9438C12.0516 29.5562 12.0323 27.4188 12.0323 26.1063C12.0323 26.1063 7.51613 27.0437 6.56774 24.2437C6.56774 24.2437 5.83226 22.425 4.77419 21.9562C4.77419 21.9562 3.29677 20.975 4.87742 20.9937C4.87742 20.9937 6.48387 21.1188 7.36774 22.6063C8.78064 25.0188 11.1484 24.325 12.071 23.9125C12.2194 22.9125 12.6387 22.2188 13.1032 21.8062C9.49677 21.4187 5.85806 20.9125 5.85806 14.9C5.85806 13.1812 6.34839 12.3188 7.38065 11.2188C7.2129 10.8125 6.66452 9.1375 7.54839 6.975C8.89677 6.56875 12 8.6625 12 8.6625C13.2903 8.3125 14.6774 8.13125 16.0516 8.13125C17.4258 8.13125 18.8129 8.3125 20.1032 8.6625C20.1032 8.6625 23.2065 6.5625 24.5548 6.975C25.4387 9.14375 24.8903 10.8125 24.7226 11.2188C25.7548 12.325 26.3871 13.1875 26.3871 14.9C26.3871 20.9312 22.5871 21.4125 18.9806 21.8062C19.5742 22.3 20.0774 23.2375 20.0774 24.7062C20.0774 26.8125 20.0581 29.4187 20.0581 29.9312C20.0581 30.3375 20.3548 30.8312 21.1742 30.6875C27.6258 28.6125 32 22.6812 32 15.75C32 7.08125 24.7419 0.5 15.7935 0.5ZM6.27097 22.0562C6.1871 22.1187 6.20645 22.2625 6.31613 22.3813C6.41935 22.4813 6.56774 22.525 6.65161 22.4438C6.73548 22.3813 6.71613 22.2375 6.60645 22.1187C6.50323 22.0187 6.35484 21.975 6.27097 22.0562ZM5.57419 21.55C5.52903 21.6312 5.59355 21.7313 5.72258 21.7938C5.82581 21.8563 5.95484 21.8375 6 21.75C6.04516 21.6688 5.98064 21.5688 5.85161 21.5063C5.72258 21.4688 5.61935 21.4875 5.57419 21.55ZM7.66452 23.775C7.56129 23.8562 7.6 24.0438 7.74839 24.1625C7.89677 24.3062 8.08387 24.325 8.16774 24.225C8.25161 24.1438 8.2129 23.9562 8.08387 23.8375C7.94194 23.6938 7.74839 23.675 7.66452 23.775ZM6.92903 22.8563C6.82581 22.9188 6.82581 23.0813 6.92903 23.225C7.03226 23.3687 7.20645 23.4312 7.29032 23.3687C7.39355 23.2875 7.39355 23.125 7.29032 22.9813C7.2 22.8375 7.03226 22.775 6.92903 22.8563Z" fill="black"/>
</svg>
