<svg width="32" height="32" viewBox="0 0 32 32" fill="none" xmlns="http://www.w3.org/2000/svg">
<path d="M16 0C7.17775 0 0 7.17775 0 16C0 24.8223 7.17775 32 16 32C24.8223 32 32 24.8223 32 16C32 7.17775 24.8223 0 16 0ZM29.0476 9.33332H22.0752C21.4456 5.95904 20.3481 3.24865 18.9675 1.6358C23.3716 2.54439 27.0497 5.43938 29.0476 9.33332ZM21.3333 16C21.3333 17.9232 21.1881 19.7071 20.9438 21.3333H11.0561C10.8119 19.707 10.6666 17.9232 10.6666 16C10.6666 14.0768 10.8119 12.2929 11.0561 10.6667H20.9439C21.1881 12.293 21.3333 14.0768 21.3333 16ZM16 1.33332C17.8033 1.33332 19.7479 4.42118 20.7138 9.33332H11.2862C12.2521 4.42123 14.1967 1.33332 16 1.33332ZM13.0325 1.6358C11.6519 3.2486 10.5545 5.95904 9.9248 9.33332H2.9524C4.95025 5.43938 8.62846 2.54439 13.0325 1.6358ZM1.33332 16C1.33332 14.1171 1.70262 12.3221 2.35194 10.6667H9.70687C9.46878 12.3304 9.33332 14.1184 9.33332 16C9.33332 17.8816 9.46884 19.6696 9.70687 21.3333H2.352C1.70262 19.6779 1.33332 17.8829 1.33332 16ZM2.9524 22.6667H9.92485C10.5545 26.041 11.6519 28.7514 13.0325 30.3642C8.62846 29.4556 4.95025 26.5606 2.9524 22.6667ZM16 30.6667C14.1967 30.6667 12.2521 27.5787 11.2862 22.6667H20.7137C19.7479 27.5787 17.8033 30.6667 16 30.6667ZM18.9675 30.3642C20.3481 28.7514 21.4455 26.041 22.0752 22.6667H29.0477C27.0498 26.5606 23.3716 29.4556 18.9675 30.3642ZM22.2931 21.3333C22.5312 19.6696 22.6667 17.8816 22.6667 16C22.6667 14.1184 22.5312 12.3304 22.2931 10.6667H29.648C30.2973 12.3221 30.6666 14.1171 30.6666 16C30.6666 17.8829 30.2973 19.6779 29.648 21.3333H22.2931Z" fill="#1B1B47"/>
</svg>
