<svg width="25" height="23" viewBox="0 0 25 23" fill="none" xmlns="http://www.w3.org/2000/svg">
<path d="M10.6415 22.2602L10.5243 22.1445L2.31182 13.9588C0.872754 12.525 0.0571289 10.5125 0.0571289 8.40448L0.0571289 8.23845C0.0571289 4.69654 2.40088 1.65774 5.64463 0.993637C7.4915 0.611272 9.38057 1.0691 10.8853 2.20614C11.3071 2.52813 11.7009 2.90043 12.0571 3.32808C12.254 3.08658 12.4649 2.86521 12.6899 2.65894C12.8634 2.49794 13.0415 2.34701 13.229 2.20614C14.7337 1.0691 16.6228 0.611272 18.4696 0.988606C21.7134 1.65271 24.0571 4.69654 24.0571 8.23845L24.0571 8.40448C24.0571 10.5125 23.2415 12.525 21.8024 13.9588L13.5899 22.1445L13.4728 22.2602C13.0884 22.6425 12.5821 22.8589 12.0571 22.8589C11.5321 22.8589 11.0259 22.6476 10.6415 22.2602ZM11.2649 5.9996C11.2462 5.98451 11.2321 5.96438 11.2181 5.94426L10.3837 4.93804L10.379 4.933C9.29619 3.62994 7.66025 3.03627 6.0665 3.36329C3.88213 3.81106 2.30713 5.8537 2.30713 8.23845L2.30713 8.40448C2.30713 9.83835 2.86494 11.2118 3.84463 12.1879L12.0571 20.3735L20.2696 12.1879C21.2493 11.2118 21.8071 9.83835 21.8071 8.40448L21.8071 8.23845C21.8071 5.85873 20.2321 3.81106 18.0524 3.36329C16.4587 3.03627 14.8181 3.63498 13.7399 4.933C13.7399 4.933 13.7399 4.933 13.7353 4.93804C13.7306 4.94307 13.7353 4.93804 13.7306 4.94307L12.8962 5.94929C12.8821 5.96942 12.8634 5.98451 12.8493 6.00463C12.6384 6.23103 12.3524 6.35681 12.0571 6.35681C11.7618 6.35681 11.4759 6.23103 11.2649 6.00463L11.2649 5.9996Z" fill="#C73716"/>
</svg>
