<svg width="32" height="32" viewBox="0 0 32 32" fill="none" xmlns="http://www.w3.org/2000/svg">
<g clip-path="url(#clip0_22_932)">
<g clip-path="url(#clip1_22_932)">
<path d="M0 0.106201V31.8939H32V0.106201H0ZM17.4143 24.8977C17.4143 27.9914 15.5857 29.4034 12.9214 29.4034C10.5143 29.4034 9.12143 28.1688 8.40714 26.6716L10.8571 25.2029C11.3286 26.033 11.7571 26.7355 12.7929 26.7355C13.7786 26.7355 14.4071 26.3523 14.4071 24.8552V14.7016H17.4143V24.8977ZM24.5286 29.4034C21.7357 29.4034 19.9286 28.0836 19.05 26.3523L21.5 24.9474C22.1429 25.9904 22.9857 26.7639 24.4643 26.7639C25.7071 26.7639 26.5071 26.1465 26.5071 25.288C26.5071 24.2663 25.6929 23.9044 24.3143 23.3013L23.5643 22.982C21.3929 22.0667 19.9571 20.9101 19.9571 18.4764C19.9571 16.2342 21.6786 14.5313 24.3571 14.5313C26.2714 14.5313 27.6429 15.1912 28.6286 16.9224L26.2857 18.4125C25.7714 17.4972 25.2143 17.1353 24.35 17.1353C23.4714 17.1353 22.9143 17.6888 22.9143 18.4125C22.9143 19.3065 23.4714 19.6684 24.7643 20.2289L25.5143 20.5482C28.0714 21.6338 29.5071 22.7478 29.5071 25.2454C29.5071 27.9275 27.3786 29.4034 24.5286 29.4034Z" fill="#E6DF3D"/>
</g>
</g>
<defs>
<clipPath id="clip0_22_932">
<rect width="32" height="32" fill="white"/>
</clipPath>
<clipPath id="clip1_22_932">
<rect width="32" height="36.3288" fill="white" transform="translate(0 -2.16431)"/>
</clipPath>
</defs>
</svg>
