<svg width="24" height="24" viewBox="0 0 24 24" fill="none" xmlns="http://www.w3.org/2000/svg">
<path d="M23.5 15.198V23.5H19.5296V16.1998C19.5296 15.2922 19.5267 14.1304 19.1571 13.1971C18.9666 12.7161 18.6701 12.2704 18.2085 11.9483C17.7458 11.6256 17.1598 11.4569 16.4427 11.4569C15.7309 11.4569 15.1336 11.596 14.643 11.8677C14.1495 12.1409 13.7938 12.5318 13.543 12.9864C13.0545 13.8722 12.9593 15.012 12.9593 16.0659V23.5H8.98893V8.47643H12.7611V10.1622V10.6622H13.2611H13.3307H13.6322L13.7729 10.3955C14.3548 9.2927 15.8119 8.07463 18.0386 8.07463C20.4331 8.07463 21.7383 8.85223 22.4846 10.0375C23.2642 11.2758 23.5 13.0552 23.5 15.198ZM4.87214 23.5H0.896429V8.47643H4.87214V23.5ZM2.88161 5.29066C1.5728 5.29066 0.5 4.2028 0.5 2.88167C0.5 2.25001 0.750921 1.64422 1.19756 1.19757C1.6442 0.750923 2.24997 0.5 2.88161 0.5C3.51325 0.5 4.11901 0.750923 4.56565 1.19757C5.01229 1.64422 5.26321 2.25001 5.26321 2.88167C5.26321 4.20274 4.18994 5.29066 2.88161 5.29066Z" stroke="black"/>
</svg>
