<svg width="48" height="32" viewBox="0 0 48 32" fill="none" xmlns="http://www.w3.org/2000/svg">
<path d="M17.4385 21.6553V27.5883L21.4325 27.5824V21.6612L19.4385 24.0375L17.4385 21.6553Z" fill="#B71C1C"/>
<path d="M46.0233 11.5181C45.8463 11.2562 45.1833 11.0986 45.1833 11.0986L44.3873 12.9854L44.4753 10.8888C44.4753 10.8888 39.6543 8.58244 35.8073 7.4814C31.9603 6.38036 29.2273 5.95132 27.7593 5.90984C26.6973 5.87903 24.6623 6.01414 24.6623 6.01414L26.3873 7.9531C26.3873 7.9531 24.2203 6.90421 23.4243 6.53799C22.6283 6.17177 21.3903 6.17058 20.7703 6.11844C20.1513 6.06629 19.6203 6.38036 19.6203 6.38036C19.6203 6.38036 19.0453 6.90421 20.3723 10.4159C21.4603 13.2959 24.0913 15.1152 25.0043 15.6781C19.0873 14.1564 18.4263 7.37592 18.4263 7.37592C18.4263 7.37592 14.8233 7.33207 9.66935 9.47251C3.84535 11.8915 0.381348 16.5493 0.381348 16.5493C0.381348 16.5493 4.98135 14.7146 8.87335 15.9721C12.7653 17.2295 14.3703 20.4615 14.3703 20.4615L14.4773 16.8977H17.4133L19.6643 20.1131L21.4223 16.9404H24.3933C24.3933 16.9404 24.4083 16.9404 24.4293 16.9392V24.0254C24.4293 24.0254 26.4433 22.0521 27.8013 21.2663C29.6143 20.2174 33.8163 20.5327 33.8163 20.5327C33.8163 20.5327 33.7493 19.9756 33.5013 19.3866C33.1493 18.5522 34.0743 18.2784 34.0743 18.2784C34.0743 18.2784 42.3523 16.1297 43.2803 15.9199C44.2093 15.7101 44.8723 15.2384 45.0933 14.9765C45.3143 14.7146 45.9333 12.8799 46.0663 12.6701C46.2003 12.4615 46.2003 11.7801 46.0233 11.5181ZM20.6373 7.90095C20.8583 7.4814 21.5223 7.32377 22.5393 7.90095C23.7393 8.58125 25.1933 10.8367 25.1933 10.8367L23.9553 10.1552L24.5743 11.466L23.4683 10.7324L24.4413 12.4094L23.7783 12.1996L24.6633 13.9288C20.8143 11.3084 20.4163 8.32051 20.6373 7.90095ZM37.3553 10.4693L36.6923 11.0453C36.6923 11.0453 34.0383 11.4648 33.3313 11.4127C32.6233 11.3605 32.1813 10.1018 32.1813 10.1018L30.7223 9.05296L37.3553 10.4693ZM32.3573 17.8079C31.8703 18.2796 32.3133 19.4328 32.3133 19.4328C31.6503 18.8568 30.8533 17.7558 31.5613 17.1264C32.2693 16.4971 37.4433 15.7113 37.4433 15.7113C37.4433 15.7113 32.8433 17.3362 32.3573 17.8079Z" fill="#B71C1C"/>
</svg>
