<svg width="52" height="32" viewBox="0 0 52 32" fill="none" xmlns="http://www.w3.org/2000/svg">
<path d="M12.6284 8.34605H22.1798V9.14121H13.504V15.1258H21.6624V15.921H13.504V22.4915H22.2793V23.2866H12.6284V8.34605ZM23.0355 8.34605H24.0503L28.5474 14.9166L33.144 8.34605L39.3962 0L29.1245 15.6071L34.4175 23.2866H33.3629L28.5474 16.2976L23.712 23.2866H22.6773L28.0101 15.6071L23.0355 8.34605ZM34.7956 9.14121V8.34605H45.6802V9.14121H40.6657V23.2866H39.7902V9.14121H34.7956Z" fill="black"/>
<path d="M0.679199 8.34619H1.77363L16.8652 32.0001L10.6286 23.2868L1.59454 9.47615L1.55474 23.2868H0.679199V8.34619Z" fill="black"/>
<path d="M45.5918 22.2515C45.7729 22.2515 45.9049 22.1064 45.9049 21.9188C45.9049 21.7312 45.7729 21.586 45.5918 21.586C45.413 21.586 45.2788 21.7312 45.2788 21.9188C45.2788 22.1064 45.413 22.2515 45.5918 22.2515ZM46.4522 21.3761C46.4522 21.9299 46.8334 22.2917 47.3892 22.2917C47.9812 22.2917 48.3389 21.9188 48.3389 21.2711V18.9908H47.8619V21.2688C47.8619 21.6284 47.6894 21.8205 47.3849 21.8205C47.1123 21.8205 46.9271 21.6418 46.9207 21.3761H46.4522ZM48.9629 21.347C48.997 21.9232 49.4548 22.2917 50.1363 22.2917C50.8646 22.2917 51.3203 21.9054 51.3203 21.2889C51.3203 20.8043 51.0605 20.5363 50.4301 20.3822L50.0915 20.2951C49.6912 20.1968 49.5293 20.065 49.5293 19.835C49.5293 19.5447 49.7806 19.3548 50.1575 19.3548C50.5153 19.3548 50.7623 19.5402 50.8071 19.8372H51.2713C51.2436 19.2945 50.7879 18.9126 50.1639 18.9126C49.4931 18.9126 49.0459 19.2945 49.0459 19.8685C49.0459 20.342 49.2994 20.6234 49.8552 20.7596L50.2512 20.8601C50.658 20.9606 50.8369 21.108 50.8369 21.3537C50.8369 21.6396 50.5558 21.8473 50.1725 21.8473C49.7615 21.8473 49.4761 21.653 49.4356 21.347H48.9629Z" fill="black"/>
</svg>
