<svg width="32" height="34" viewBox="0 0 32 34" fill="none" xmlns="http://www.w3.org/2000/svg">
<path d="M15.9928 34C15.513 34 15.026 33.8786 14.6034 33.6492L10.1844 31.1866C9.52551 30.8358 9.84781 30.7144 10.0627 30.6469C10.9436 30.3568 11.1227 30.2961 12.0609 29.7901C12.1611 29.7361 12.2901 29.7563 12.3903 29.817L15.7851 31.7129C15.9069 31.7803 16.0788 31.7803 16.1934 31.7129L29.4217 24.5209C29.5434 24.4534 29.6222 24.3185 29.6222 24.1835V9.79958C29.6222 9.6579 29.5434 9.52971 29.4145 9.4555L16.1934 2.27026C16.0716 2.2028 15.9069 2.2028 15.7851 2.27026L2.57117 9.46225C2.44226 9.52972 2.36347 9.66465 2.36347 9.80633V24.1835C2.36347 24.3185 2.44226 24.4534 2.57117 24.5141L6.19517 26.4842C8.16473 27.4085 9.36795 26.3223 9.36795 25.2225V11.0275C9.36795 10.8251 9.53984 10.6699 9.7547 10.6699H11.4306C11.6383 10.6699 11.8174 10.8251 11.8174 11.0275V25.2293C11.8174 27.6986 10.385 29.1154 7.89973 29.1154C7.13339 29.1154 6.53178 29.1154 4.85586 28.3328L1.38944 26.4504C0.529991 25.9849 0 25.1146 0 24.1768V9.79958C0 8.86854 0.529991 7.99147 1.38944 7.52594L14.6034 0.333962C15.4414 -0.111321 16.5515 -0.111321 17.3823 0.333962L30.6106 7.53269C31.47 7.99821 32 8.86854 32 9.80633V24.1835C32 25.1146 31.47 25.9849 30.6106 26.4572L17.3823 33.6492C16.9597 33.8786 16.4799 34 15.9928 34ZM26.6714 19.8252C26.6714 17.1332 24.7377 16.4181 20.6768 15.9121C16.5658 15.3993 16.1504 15.1362 16.1504 14.2322C16.1504 13.4833 16.5013 12.4848 19.5452 12.4848C22.2596 12.4848 23.2623 13.038 23.6777 14.7652C23.7135 14.9271 23.8711 15.0485 24.0501 15.0485H25.769C25.8765 15.0485 25.9767 15.008 26.0483 14.9338C26.12 14.8596 26.1558 14.7584 26.1486 14.6572C25.8836 11.6819 23.7851 10.2988 19.5452 10.2988C15.7708 10.2988 13.5219 11.7966 13.5219 14.3131C13.5219 17.0388 15.7637 17.7944 19.3805 18.1318C23.7135 18.5298 24.0501 19.1303 24.0501 19.9331C24.0501 21.3229 22.8612 21.9167 20.0752 21.9167C16.573 21.9167 15.8066 21.0868 15.5488 19.4474C15.5201 19.272 15.3626 19.1438 15.1692 19.1438H13.4575C13.2426 19.1438 13.0779 19.3057 13.0779 19.5013C13.0779 21.5996 14.2883 24.1026 20.0824 24.1026C24.265 24.0958 26.6714 22.5374 26.6714 19.8252Z" fill="#25691F"/>
</svg>
