<svg width="32" height="28" viewBox="0 0 32 28" fill="none" xmlns="http://www.w3.org/2000/svg">
<path d="M26.1375 9.07373C25.8 8.96124 25.4625 8.855 25.125 8.755C25.1812 8.52376 25.2313 8.29253 25.2812 8.06129C26.05 4.33649 25.5437 1.3429 23.8375 0.355449C22.1938 -0.58825 19.5125 0.392947 16.8 2.75532C16.5312 2.98656 16.2687 3.2303 16.0187 3.47403C15.85 3.31154 15.675 3.14905 15.5 2.99281C12.6562 0.467943 9.80625 -0.5945 8.1 0.399197C6.4625 1.34915 5.975 4.16775 6.6625 7.69256C6.73125 8.04254 6.80625 8.38627 6.89375 8.73625C6.49375 8.84875 6.1 8.97374 5.73125 9.10498C2.39375 10.2612 0 12.0861 0 13.9735C0 15.9234 2.55 17.8795 6.01875 19.0669C6.3 19.1607 6.58125 19.2544 6.86875 19.3357C6.775 19.7107 6.69375 20.0794 6.61875 20.4606C5.9625 23.9292 6.475 26.679 8.1125 27.6227C9.8 28.5977 12.6375 27.5977 15.4 25.1791C15.6187 24.9854 15.8375 24.7854 16.0562 24.5729C16.3312 24.8416 16.6187 25.0979 16.9062 25.3479C19.5812 27.6477 22.225 28.5789 23.8563 27.6352C25.5438 26.6603 26.0938 23.7042 25.3813 20.1044C25.325 19.8294 25.2625 19.5482 25.1938 19.2607C25.3938 19.2044 25.5875 19.1419 25.7812 19.0794C29.3875 17.8858 32 15.9546 32 13.9735C32 12.0798 29.5375 10.2424 26.1375 9.07373ZM17.6812 3.76777C20.0063 1.74288 22.175 0.949168 23.1625 1.51789C24.2188 2.1241 24.625 4.57397 23.9625 7.79255C23.9187 8.00504 23.875 8.21128 23.8188 8.41752C22.4312 8.10503 21.025 7.88005 19.6125 7.75505C18.8 6.59262 17.9125 5.48018 16.95 4.43648C17.1938 4.20524 17.4312 3.98651 17.6812 3.76777ZM10.45 17.217C10.7688 17.7608 11.0938 18.3045 11.4375 18.8357C10.4625 18.7295 9.49375 18.5732 8.5375 18.367C8.8125 17.467 9.15625 16.5358 9.55625 15.5859C9.84375 16.1359 10.1375 16.6796 10.45 17.217ZM8.55625 9.6987C9.45625 9.49871 10.4125 9.33622 11.4062 9.21123C11.075 9.72995 10.75 10.2612 10.4438 10.7986C10.1375 11.3299 9.8375 11.8736 9.55625 12.4236C9.1625 11.4924 8.83125 10.5799 8.55625 9.6987ZM10.2688 14.0047C10.6813 13.1423 11.1312 12.2986 11.6062 11.4674C12.0813 10.6362 12.5938 9.82994 13.1313 9.03624C14.0688 8.96749 15.025 8.92999 16 8.92999C16.975 8.92999 17.9375 8.96749 18.8687 9.03624C19.4 9.82369 19.9062 10.6299 20.3875 11.4549C20.8688 12.2798 21.3188 13.1235 21.7437 13.9797C21.325 14.8422 20.875 15.6921 20.3937 16.5296C19.9187 17.3608 19.4125 18.167 18.8813 18.967C17.95 19.0357 16.9813 19.0669 16 19.0669C15.0188 19.0669 14.0687 19.0357 13.15 18.9795C12.6062 18.1857 12.0938 17.3733 11.6125 16.5421C11.1313 15.7109 10.6875 14.8672 10.2688 14.0047ZM21.5562 17.2045C21.875 16.6546 22.175 16.0984 22.4688 15.5359C22.8687 16.4421 23.2188 17.3608 23.525 18.3045C22.5562 18.5232 21.575 18.692 20.5875 18.8045C20.925 18.2795 21.2437 17.742 21.5562 17.2045ZM22.4562 12.4236C22.1625 11.8736 21.8625 11.3236 21.55 10.7861C21.2437 10.2549 20.925 9.72995 20.5938 9.21123C21.6 9.33622 22.5625 9.50496 23.4625 9.7112C23.175 10.6361 22.8375 11.5361 22.4562 12.4236ZM16.0125 5.39268C16.6688 6.10514 17.2875 6.8551 17.8625 7.63006C16.625 7.57381 15.3813 7.57381 14.1438 7.63006C14.7563 6.82385 15.3875 6.07389 16.0125 5.39268ZM8.7625 1.56164C9.8125 0.949168 12.1438 1.82412 14.6 3.999C14.7563 4.1365 14.9125 4.28649 15.075 4.43648C14.1062 5.48018 13.2125 6.59262 12.3938 7.75505C10.9812 7.88005 9.58125 8.09879 8.19375 8.40502C8.1125 8.08629 8.04375 7.7613 7.975 7.43632C7.3875 4.41148 7.775 2.13035 8.7625 1.56164ZM7.23125 18.0358C6.96875 17.9608 6.7125 17.8795 6.45625 17.792C5.125 17.3733 3.6125 16.7108 2.51875 15.8421C1.8875 15.4046 1.4625 14.7297 1.34375 13.9735C1.34375 12.8298 3.31875 11.3674 6.16875 10.3737C6.525 10.2487 6.8875 10.1362 7.25 10.0299C7.675 11.3861 8.1875 12.7173 8.78125 14.0047C8.18125 15.3109 7.6625 16.6608 7.23125 18.0358ZM14.5188 24.1604C13.4875 25.1041 12.2937 25.8541 10.9937 26.3666C10.3 26.6978 9.5 26.729 8.7875 26.4478C7.79375 25.8728 7.38125 23.6667 7.94375 20.6981C8.0125 20.3481 8.0875 19.9981 8.175 19.6544C9.575 19.9544 10.9875 20.1606 12.4187 20.2669C13.2437 21.4356 14.15 22.5543 15.1187 23.6042C14.9187 23.7979 14.7188 23.9854 14.5188 24.1604ZM16.05 22.6418C15.4125 21.9543 14.775 21.1918 14.1562 20.3731C14.7563 20.3981 15.375 20.4106 16 20.4106C16.6437 20.4106 17.275 20.3981 17.9 20.3669C17.325 21.1606 16.7062 21.9168 16.05 22.6418ZM24.2188 24.5167C24.1625 25.2791 23.7875 25.9916 23.1875 26.4728C22.1938 27.0478 20.075 26.2978 17.7875 24.3354C17.525 24.1104 17.2625 23.8667 16.9937 23.6167C17.95 22.5605 18.8313 21.4418 19.6313 20.2669C21.0625 20.1481 22.4875 19.9294 23.8937 19.6107C23.9562 19.8669 24.0125 20.1231 24.0625 20.3731C24.3687 21.7231 24.4188 23.1292 24.2188 24.5167ZM25.3563 17.7983C25.1813 17.8545 25.0063 17.9108 24.825 17.9608C24.3875 16.5983 23.85 15.2672 23.2313 13.9735C23.8313 12.6985 24.3375 11.3861 24.7625 10.0424C25.0875 10.1362 25.4 10.2362 25.7 10.3362C28.6125 11.3361 30.6562 12.8235 30.6562 13.961C30.6562 15.1859 28.475 16.7671 25.3563 17.7983ZM16 16.8608C17.5812 16.8608 18.8625 15.5796 18.8625 13.9985C18.8625 12.4173 17.5812 11.1361 16 11.1361C14.4187 11.1361 13.1375 12.4173 13.1375 13.9985C13.1375 15.5796 14.4187 16.8608 16 16.8608Z" fill="#00ACC1"/>
</svg>
