<svg width="32" height="32" viewBox="0 0 32 32" fill="none" xmlns="http://www.w3.org/2000/svg">
<path d="M16 6.40259C11.7333 6.40259 9.06667 8.53525 8 12.8006C9.6 10.6679 11.4667 9.86859 13.6 10.4013C14.8173 10.7053 15.6873 11.5886 16.6507 12.5659C18.2187 14.1573 20.034 15.9999 24 15.9999C28.2667 15.9999 30.9333 13.8673 32 9.60125C30.4 11.7339 28.5333 12.5339 26.4 12.0013C25.1833 11.6973 24.3133 10.8139 23.35 9.83659C21.7813 8.24459 19.9653 6.40259 16 6.40259ZM8 15.9999C3.73333 15.9999 1.06667 18.1326 0 22.3986C1.6 20.2659 3.46667 19.4659 5.6 19.9993C6.81667 20.3039 7.68667 21.1866 8.65 22.1633C10.2187 23.7553 12.0347 25.5979 16 25.5979C20.2667 25.5979 22.9333 23.4653 24 19.1993C22.4 21.3319 20.5333 22.1319 18.4 21.5986C17.1827 21.2946 16.3127 20.4113 15.3493 19.4346C13.7813 17.8426 11.966 15.9999 8 15.9999Z" fill="#00ACC1"/>
</svg>
