<svg width="32" height="32" viewBox="0 0 32 32" fill="none" xmlns="http://www.w3.org/2000/svg">
<path d="M32 0H0V32H32V0Z" fill="#1976D2"/>
<path d="M19.1023 14.2219H7.31299V17.1233H11.5414V30.2219H14.8917V17.1233H19.1023V14.2219Z" fill="white"/>
<path d="M29.5059 17.8521C29.5059 17.8521 27.9174 16.7926 26.1219 16.7926C24.3263 16.7926 23.6801 17.6459 23.6801 18.5579C23.6801 20.9117 30.241 20.6761 30.241 25.413C30.241 32.7099 20.2374 29.4734 20.2374 29.4734V25.973C20.2374 25.973 22.1503 27.4148 24.4445 27.4148C26.7387 27.4148 26.6516 25.9143 26.6516 25.7081C26.6516 23.5312 20.1494 23.5312 20.1494 18.7054C20.1494 12.1446 29.6232 14.733 29.6232 14.733L29.5059 17.8521Z" fill="white"/>
</svg>
