<svg width="24" height="20" viewBox="0 0 24 20" fill="none" xmlns="http://www.w3.org/2000/svg">
<path d="M21.2333 4.58421L21.0153 4.74747L21.0343 5.01909C21.0481 5.2176 21.0483 5.419 21.0483 5.64062C21.0483 12.1102 16.2545 19.5 7.55333 19.5C5.55947 19.5 3.67163 19.0604 1.9727 18.2672C4.08643 18.1067 6.02592 17.3024 7.60778 16.0303L8.67689 15.1705L7.30527 15.1408C5.63858 15.1046 4.19804 14.1359 3.46928 12.7165C3.52054 12.718 3.57223 12.7187 3.62439 12.7187C4.11219 12.7187 4.59703 12.6498 5.04729 12.5301L5.02062 11.5574C3.23438 11.1858 1.83262 9.71462 1.53368 7.84273C2.04839 8.03333 2.60267 8.1492 3.17859 8.17148L4.91194 8.23852L3.48021 7.25916C2.28924 6.44449 1.50505 5.05085 1.50505 3.46871C1.50505 2.89022 1.60728 2.34609 1.79432 1.84384C4.28803 4.66729 7.83852 6.49053 11.7905 6.70239L12.4358 6.73698L12.3072 6.10363C12.2367 5.75608 12.1954 5.39912 12.1954 5.04688C12.1954 2.52853 14.1775 0.5 16.6142 0.5C17.8834 0.5 19.0305 1.04529 19.8388 1.93083L20.0285 2.13867L20.3047 2.08434C20.9637 1.95467 21.607 1.75735 22.2208 1.50111C21.8698 1.99491 21.4226 2.41366 20.9064 2.72987L21.2224 3.65321C21.67 3.60379 22.1105 3.52127 22.5405 3.41109C22.1387 3.84009 21.701 4.23379 21.2333 4.58421Z" stroke="black"/>
</svg>
