<svg width="24" height="29" viewBox="0 0 24 29" fill="none" xmlns="http://www.w3.org/2000/svg">
<path d="M21.4123 8.53008C22.1936 7.82208 22.1936 6.67227 21.4123 5.96426C20.6311 5.25626 19.3623 5.25626 18.5811 5.96426L11.9998 11.9342L5.4123 5.96993C4.63105 5.26192 3.3623 5.26192 2.58105 5.96993C1.7998 6.67794 1.7998 7.82774 2.58105 8.53575L9.16855 14.5L2.5873 20.4699C1.80605 21.1779 1.80605 22.3277 2.5873 23.0357C3.36855 23.7438 4.6373 23.7438 5.41855 23.0357L11.9998 17.0658L18.5873 23.0301C19.3686 23.7381 20.6373 23.7381 21.4186 23.0301C22.1998 22.3221 22.1998 21.1723 21.4186 20.4643L14.8311 14.5L21.4123 8.53008Z" fill="black"/>
</svg>
